<svg xmlns="http://www.w3.org/2000/svg" viewBox="0 0 900 1200"><defs>
<filter id="pile" x="0" y="0" width="100%" height="100%"><feTurbulence type="fractalNoise" baseFrequency="0.9" numOctaves="2" seed="3" result="n"/><feColorMatrix type="saturate" values="0" in="n" result="g"/><feComponentTransfer in="g" result="a"><feFuncA type="table" tableValues="0 0.22"/></feComponentTransfer><feComposite in="a" in2="SourceGraphic" operator="in"/></filter>
<filter id="wear"><feTurbulence type="fractalNoise" baseFrequency="0.035" numOctaves="3" seed="8"/><feColorMatrix values="0 0 0 0 1  0 0 0 0 1  0 0 0 0 1  0 0 0 -2.2 1.3"/><feComposite in="SourceGraphic" operator="in"/></filter>
<filter id="shadow" x="-10%" y="-10%" width="120%" height="125%"><feDropShadow dx="0" dy="14" stdDeviation="14" flood-color="#1f1f1f" flood-opacity="0.22"/></filter>
</defs><rect width="900" height="1200" fill="#ebe7df"/><g transform="translate(-315 -360) scale(2.1)"><svg width="810" height="1080" viewBox="0 0 810 1080" overflow="hidden"><rect width="810" height="1080" fill="#939393"/><rect x="31.228644736111164" y="574.6982704550028" width="145.58944915048778" height="126.36267944332212" fill="#3a3a3a" opacity="0.8"/><rect x="67.409075377509" y="222.10250944644213" width="355.8930966239422" height="173.32237516902387" fill="#262626" opacity="0.8"/><rect x="192.43429071642458" y="749.3640448451042" width="294.5574078876525" height="315.92703083809465" fill="#2b2b2b" opacity="0.8"/><rect x="285.9779995344579" y="335.78107530623674" width="214.0028853295371" height="227.2089626379311" fill="#efe6d2" opacity="0.8"/><rect x="396.00653143040836" y="191.43766551464796" width="218.42373423837128" height="373.04237531125546" fill="#3a3a3a" opacity="0.8"/><rect x="268.11464998684824" y="139.22094190120697" width="328.6040104078129" height="409.63394946791226" fill="#262626" opacity="0.8"/><rect x="213.98925421759486" y="322.3315789550543" width="305.1286054523662" height="121.40446735080332" fill="#2b2b2b" opacity="0.8"/><rect x="199.3923092521727" y="308.47678023576736" width="279.59843720030045" height="221.42348941694948" fill="#efe6d2" opacity="0.8"/><line x1="0" y1="0" x2="810" y2="162" stroke="#262626" stroke-width="1.5" opacity="0.35"/><line x1="0" y1="90" x2="810" y2="252" stroke="#262626" stroke-width="1.5" opacity="0.35"/><line x1="0" y1="180" x2="810" y2="342" stroke="#262626" stroke-width="1.5" opacity="0.35"/><line x1="0" y1="270" x2="810" y2="432" stroke="#262626" stroke-width="1.5" opacity="0.35"/><line x1="0" y1="360" x2="810" y2="522" stroke="#262626" stroke-width="1.5" opacity="0.35"/><line x1="0" y1="450" x2="810" y2="612" stroke="#262626" stroke-width="1.5" opacity="0.35"/><line x1="0" y1="540" x2="810" y2="702" stroke="#262626" stroke-width="1.5" opacity="0.35"/><line x1="0" y1="630" x2="810" y2="792" stroke="#262626" stroke-width="1.5" opacity="0.35"/><line x1="0" y1="720" x2="810" y2="882" stroke="#262626" stroke-width="1.5" opacity="0.35"/><line x1="0" y1="810" x2="810" y2="972" stroke="#262626" stroke-width="1.5" opacity="0.35"/><line x1="0" y1="900" x2="810" y2="1062" stroke="#262626" stroke-width="1.5" opacity="0.35"/><line x1="0" y1="990" x2="810" y2="1152" stroke="#262626" stroke-width="1.5" opacity="0.35"/><rect width="810" height="1080" fill="#000" filter="url(#pile)"/></svg></g></svg>