<svg xmlns="http://www.w3.org/2000/svg" viewBox="0 0 900 1200"><defs>
<filter id="pile" x="0" y="0" width="100%" height="100%"><feTurbulence type="fractalNoise" baseFrequency="0.9" numOctaves="2" seed="3" result="n"/><feColorMatrix type="saturate" values="0" in="n" result="g"/><feComponentTransfer in="g" result="a"><feFuncA type="table" tableValues="0 0.22"/></feComponentTransfer><feComposite in="a" in2="SourceGraphic" operator="in"/></filter>
<filter id="wear"><feTurbulence type="fractalNoise" baseFrequency="0.035" numOctaves="3" seed="8"/><feColorMatrix values="0 0 0 0 1  0 0 0 0 1  0 0 0 0 1  0 0 0 -2.2 1.3"/><feComposite in="SourceGraphic" operator="in"/></filter>
<filter id="shadow" x="-10%" y="-10%" width="120%" height="125%"><feDropShadow dx="0" dy="14" stdDeviation="14" flood-color="#1f1f1f" flood-opacity="0.22"/></filter>
</defs><rect width="900" height="1200" fill="#f3f1ec"/><g filter="url(#shadow)"><g transform="translate(126 134.25)"><svg width="648" height="931.5" viewBox="0 0 648 931.5" overflow="hidden"><rect width="648" height="931.5" fill="#dfadbc"/><rect x="297.07734373658894" y="96.45019217049703" width="203.05980619713662" height="313.6916686156648" fill="#c46a86" opacity="0.8"/><rect x="79.46251576244832" y="697.7245111607016" width="171.37881147041915" height="287.0204373492161" fill="#7f4557" opacity="0.8"/><rect x="9.326639091968536" y="373.9617692431435" width="333.119233276695" height="324.26266860959583" fill="#d8c3a5" opacity="0.8"/><rect x="347.6071096122265" y="194.07713627899068" width="164.13897258639335" height="287.02153166943464" fill="#efe6d2" opacity="0.8"/><rect x="295.72463568449024" y="158.91147667234765" width="323.33504585176706" height="344.74437865427467" fill="#c46a86" opacity="0.8"/><line x1="0" y1="0" x2="648" y2="139.725" stroke="#7f4557" stroke-width="1.5" opacity="0.35"/><line x1="0" y1="77.625" x2="648" y2="217.35" stroke="#7f4557" stroke-width="1.5" opacity="0.35"/><line x1="0" y1="155.25" x2="648" y2="294.975" stroke="#7f4557" stroke-width="1.5" opacity="0.35"/><line x1="0" y1="232.875" x2="648" y2="372.6" stroke="#7f4557" stroke-width="1.5" opacity="0.35"/><line x1="0" y1="310.5" x2="648" y2="450.225" stroke="#7f4557" stroke-width="1.5" opacity="0.35"/><line x1="0" y1="388.125" x2="648" y2="527.85" stroke="#7f4557" stroke-width="1.5" opacity="0.35"/><line x1="0" y1="465.75" x2="648" y2="605.475" stroke="#7f4557" stroke-width="1.5" opacity="0.35"/><line x1="0" y1="543.375" x2="648" y2="683.1" stroke="#7f4557" stroke-width="1.5" opacity="0.35"/><line x1="0" y1="621" x2="648" y2="760.725" stroke="#7f4557" stroke-width="1.5" opacity="0.35"/><line x1="0" y1="698.625" x2="648" y2="838.35" stroke="#7f4557" stroke-width="1.5" opacity="0.35"/><line x1="0" y1="776.25" x2="648" y2="915.975" stroke="#7f4557" stroke-width="1.5" opacity="0.35"/><line x1="0" y1="853.875" x2="648" y2="993.6" stroke="#7f4557" stroke-width="1.5" opacity="0.35"/><rect width="648" height="931.5" fill="#000" filter="url(#pile)"/></svg></g></g></svg>