<svg xmlns="http://www.w3.org/2000/svg" viewBox="0 0 400 400"><defs>
<filter id="pile" x="0" y="0" width="100%" height="100%"><feTurbulence type="fractalNoise" baseFrequency="0.9" numOctaves="2" seed="3" result="n"/><feColorMatrix type="saturate" values="0" in="n" result="g"/><feComponentTransfer in="g" result="a"><feFuncA type="table" tableValues="0 0.22"/></feComponentTransfer><feComposite in="a" in2="SourceGraphic" operator="in"/></filter>
<filter id="wear"><feTurbulence type="fractalNoise" baseFrequency="0.035" numOctaves="3" seed="8"/><feColorMatrix values="0 0 0 0 1  0 0 0 0 1  0 0 0 0 1  0 0 0 -2.2 1.3"/><feComposite in="SourceGraphic" operator="in"/></filter>
<filter id="shadow" x="-10%" y="-10%" width="120%" height="125%"><feDropShadow dx="0" dy="14" stdDeviation="14" flood-color="#1f1f1f" flood-opacity="0.22"/></filter>
</defs><g transform="translate(-100 -100) scale(1.5)"><svg width="400" height="400" viewBox="0 0 400 400" overflow="hidden"><rect width="400" height="400" fill="#efe6d2"/><rect x="0" y="0" width="400" height="50" fill="#c9952b"/><path d="M33.333333333333336 6L52.333333333333336 25L33.333333333333336 44L14.333333333333336 25Z" fill="#efe6d2"/><path d="M33.333333333333336 15.5L42.833333333333336 25L33.333333333333336 34.5L23.833333333333336 25Z" fill="#c9952b"/><path d="M100 6L119 25L100 44L81 25Z" fill="#efe6d2"/><path d="M100 15.5L109.5 25L100 34.5L90.5 25Z" fill="#c9952b"/><path d="M166.66666666666669 6L185.66666666666669 25L166.66666666666669 44L147.66666666666669 25Z" fill="#efe6d2"/><path d="M166.66666666666669 15.5L176.16666666666669 25L166.66666666666669 34.5L157.16666666666669 25Z" fill="#c9952b"/><path d="M233.33333333333334 6L252.33333333333334 25L233.33333333333334 44L214.33333333333334 25Z" fill="#efe6d2"/><path d="M233.33333333333334 15.5L242.83333333333334 25L233.33333333333334 34.5L223.83333333333334 25Z" fill="#c9952b"/><path d="M300 6L319 25L300 44L281 25Z" fill="#efe6d2"/><path d="M300 15.5L309.5 25L300 34.5L290.5 25Z" fill="#c9952b"/><path d="M366.6666666666667 6L385.6666666666667 25L366.6666666666667 44L347.6666666666667 25Z" fill="#efe6d2"/><path d="M366.6666666666667 15.5L376.1666666666667 25L366.6666666666667 34.5L357.1666666666667 25Z" fill="#c9952b"/><rect x="0" y="50" width="400" height="50" fill="#efe6d2"/><path d="M0 100L0 90L33.33333333333333 60L66.66666666666666 90L100 60L133.33333333333331 90L166.66666666666669 60L200 90L233.33333333333334 60L266.66666666666663 90L300 60L333.33333333333337 90L366.66666666666663 60L400 90L400 100Z" fill="#83611c"/><rect x="0" y="100" width="400" height="50" fill="#c9952b"/><path d="M33.333333333333336 106L52.333333333333336 125L33.333333333333336 144L14.333333333333336 125Z" fill="#efe6d2"/><path d="M33.333333333333336 115.5L42.833333333333336 125L33.333333333333336 134.5L23.833333333333336 125Z" fill="#e1c58a"/><path d="M100 106L119 125L100 144L81 125Z" fill="#efe6d2"/><path d="M100 115.5L109.5 125L100 134.5L90.5 125Z" fill="#e1c58a"/><path d="M166.66666666666669 106L185.66666666666669 125L166.66666666666669 144L147.66666666666669 125Z" fill="#efe6d2"/><path d="M166.66666666666669 115.5L176.16666666666669 125L166.66666666666669 134.5L157.16666666666669 125Z" fill="#e1c58a"/><path d="M233.33333333333334 106L252.33333333333334 125L233.33333333333334 144L214.33333333333334 125Z" fill="#efe6d2"/><path d="M233.33333333333334 115.5L242.83333333333334 125L233.33333333333334 134.5L223.83333333333334 125Z" fill="#e1c58a"/><path d="M300 106L319 125L300 144L281 125Z" fill="#efe6d2"/><path d="M300 115.5L309.5 125L300 134.5L290.5 125Z" fill="#e1c58a"/><path d="M366.6666666666667 106L385.6666666666667 125L366.6666666666667 144L347.6666666666667 125Z" fill="#efe6d2"/><path d="M366.6666666666667 115.5L376.1666666666667 125L366.6666666666667 134.5L357.1666666666667 125Z" fill="#e1c58a"/><rect x="0" y="150" width="400" height="50" fill="#efe6d2"/><path d="M0 200L0 190L30.76923076923077 160L61.53846153846154 190L92.3076923076923 160L123.07692307692308 190L153.84615384615387 160L184.6153846153846 190L215.3846153846154 160L246.15384615384616 190L276.9230769230769 160L307.69230769230774 190L338.46153846153845 160L369.2307692307692 190L400 160L400 200Z" fill="#d8c3a5"/><rect x="0" y="200" width="400" height="50" fill="#e1c58a"/><path d="M40 206L59 225L40 244L21 225Z" fill="#efe6d2"/><path d="M40 215.5L49.5 225L40 234.5L30.5 225Z" fill="#83611c"/><path d="M120 206L139 225L120 244L101 225Z" fill="#efe6d2"/><path d="M120 215.5L129.5 225L120 234.5L110.5 225Z" fill="#83611c"/><path d="M200 206L219 225L200 244L181 225Z" fill="#efe6d2"/><path d="M200 215.5L209.5 225L200 234.5L190.5 225Z" fill="#83611c"/><path d="M280 206L299 225L280 244L261 225Z" fill="#efe6d2"/><path d="M280 215.5L289.5 225L280 234.5L270.5 225Z" fill="#83611c"/><path d="M360 206L379 225L360 244L341 225Z" fill="#efe6d2"/><path d="M360 215.5L369.5 225L360 234.5L350.5 225Z" fill="#83611c"/><rect x="0" y="250" width="400" height="50" fill="#efe6d2"/><path d="M0 300L0 290L30.76923076923077 260L61.53846153846154 290L92.3076923076923 260L123.07692307692308 290L153.84615384615387 260L184.6153846153846 290L215.3846153846154 260L246.15384615384616 290L276.9230769230769 260L307.69230769230774 290L338.46153846153845 260L369.2307692307692 290L400 260L400 300Z" fill="#c9952b"/><rect x="0" y="300" width="400" height="50" fill="#83611c"/><path d="M40 306L59 325L40 344L21 325Z" fill="#efe6d2"/><path d="M40 315.5L49.5 325L40 334.5L30.5 325Z" fill="#d8c3a5"/><path d="M120 306L139 325L120 344L101 325Z" fill="#efe6d2"/><path d="M120 315.5L129.5 325L120 334.5L110.5 325Z" fill="#d8c3a5"/><path d="M200 306L219 325L200 344L181 325Z" fill="#efe6d2"/><path d="M200 315.5L209.5 325L200 334.5L190.5 325Z" fill="#d8c3a5"/><path d="M280 306L299 325L280 344L261 325Z" fill="#efe6d2"/><path d="M280 315.5L289.5 325L280 334.5L270.5 325Z" fill="#d8c3a5"/><path d="M360 306L379 325L360 344L341 325Z" fill="#efe6d2"/><path d="M360 315.5L369.5 325L360 334.5L350.5 325Z" fill="#d8c3a5"/><rect x="0" y="350" width="400" height="50" fill="#efe6d2"/><path d="M0 400L0 390L26.666666666666668 360L53.333333333333336 390L80 360L106.66666666666667 390L133.33333333333331 360L160 390L186.66666666666666 360L213.33333333333334 390L240 360L266.66666666666663 390L293.3333333333333 360L320 390L346.6666666666667 360L373.3333333333333 390L400 360L400 400Z" fill="#c9952b"/><rect width="400" height="400" fill="#000" filter="url(#pile)"/></svg></g></svg>