<svg xmlns="http://www.w3.org/2000/svg" viewBox="0 0 400 400"><defs>
<filter id="pile" x="0" y="0" width="100%" height="100%"><feTurbulence type="fractalNoise" baseFrequency="0.9" numOctaves="2" seed="3" result="n"/><feColorMatrix type="saturate" values="0" in="n" result="g"/><feComponentTransfer in="g" result="a"><feFuncA type="table" tableValues="0 0.22"/></feComponentTransfer><feComposite in="a" in2="SourceGraphic" operator="in"/></filter>
<filter id="wear"><feTurbulence type="fractalNoise" baseFrequency="0.035" numOctaves="3" seed="8"/><feColorMatrix values="0 0 0 0 1  0 0 0 0 1  0 0 0 0 1  0 0 0 -2.2 1.3"/><feComposite in="SourceGraphic" operator="in"/></filter>
<filter id="shadow" x="-10%" y="-10%" width="120%" height="125%"><feDropShadow dx="0" dy="14" stdDeviation="14" flood-color="#1f1f1f" flood-opacity="0.22"/></filter>
</defs><g transform="translate(-100 -100) scale(1.5)"><svg width="400" height="400" viewBox="0 0 400 400" overflow="hidden"><rect width="400" height="400" fill="#dfadbc"/><rect x="210.5722738802433" y="83.75433675944805" width="128.64093251526356" height="121.79316695779563" fill="#c46a86" opacity="0.8"/><rect x="115.14644756913185" y="61.64453998208046" width="105.62670189887284" height="106.8277833238244" fill="#7f4557" opacity="0.8"/><rect x="118.71823370456696" y="97.91021592915058" width="143.5910602658987" height="158.25217369943857" fill="#2b2b2b" opacity="0.8"/><rect x="310.76210148632526" y="124.59071680903435" width="154.38515279442072" height="133.29623111523688" fill="#efe6d2" opacity="0.8"/><rect x="59.909846410155296" y="240.70306561887264" width="183.30322355031967" height="56.2138264812529" fill="#c46a86" opacity="0.8"/><rect x="237.80003875494003" y="103.80067355930805" width="164.84038580209014" height="57.81590006314218" fill="#7f4557" opacity="0.8"/><rect x="298.4244231134653" y="276.1335264146328" width="207.2761041298509" height="57.35753823071719" fill="#2b2b2b" opacity="0.8"/><line x1="0" y1="0" x2="400" y2="60" stroke="#7f4557" stroke-width="1.5" opacity="0.35"/><line x1="0" y1="33.33333333333333" x2="400" y2="93.33333333333333" stroke="#7f4557" stroke-width="1.5" opacity="0.35"/><line x1="0" y1="66.66666666666666" x2="400" y2="126.66666666666666" stroke="#7f4557" stroke-width="1.5" opacity="0.35"/><line x1="0" y1="100" x2="400" y2="160" stroke="#7f4557" stroke-width="1.5" opacity="0.35"/><line x1="0" y1="133.33333333333331" x2="400" y2="193.33333333333331" stroke="#7f4557" stroke-width="1.5" opacity="0.35"/><line x1="0" y1="166.66666666666669" x2="400" y2="226.66666666666669" stroke="#7f4557" stroke-width="1.5" opacity="0.35"/><line x1="0" y1="200" x2="400" y2="260" stroke="#7f4557" stroke-width="1.5" opacity="0.35"/><line x1="0" y1="233.33333333333334" x2="400" y2="293.33333333333337" stroke="#7f4557" stroke-width="1.5" opacity="0.35"/><line x1="0" y1="266.66666666666663" x2="400" y2="326.66666666666663" stroke="#7f4557" stroke-width="1.5" opacity="0.35"/><line x1="0" y1="300" x2="400" y2="360" stroke="#7f4557" stroke-width="1.5" opacity="0.35"/><line x1="0" y1="333.33333333333337" x2="400" y2="393.33333333333337" stroke="#7f4557" stroke-width="1.5" opacity="0.35"/><line x1="0" y1="366.66666666666663" x2="400" y2="426.66666666666663" stroke="#7f4557" stroke-width="1.5" opacity="0.35"/><rect width="400" height="400" fill="#000" filter="url(#pile)"/></svg></g></svg>